<?xml version="1.0" encoding="UTF-8" standalone="no"?>
<!DOCTYPE svg PUBLIC "-//W3C//DTD SVG 1.1//EN"
 "http://www.w3.org/Graphics/SVG/1.1/DTD/svg11.dtd">
<!-- Generated by graphviz version 2.50.0 (20220203.2022)
 -->
<!-- Title: iop/system Pages: 1 -->
<svg width="672pt" height="247pt"
 viewBox="0.00 0.00 672.00 247.00" xmlns="http://www.w3.org/2000/svg" xmlns:xlink="http://www.w3.org/1999/xlink">
<g id="graph0" class="graph" transform="scale(1 1) rotate(0) translate(4 243)">
<title>iop/system</title>
<polygon fill="white" stroke="transparent" points="-4,4 -4,-243 668,-243 668,4 -4,4"/>
<g id="clust1" class="cluster">
<title>clusterdir_0981ace215aa2029f526b70c145b9fbe</title>
<g id="a_clust1"><a xlink:href="dir_0981ace215aa2029f526b70c145b9fbe.html" target="_top" xlink:title="iop">
<polygon fill="#deebf9" stroke="#404040" stroke-dasharray="5,2" points="8,-8 8,-231 602,-231 602,-8 8,-8"/>
<text text-anchor="middle" x="305" y="-219" font-family="Helvetica,sans-Serif" font-size="10.00">iop</text>
</a>
</g>
</g>
<g id="clust2" class="cluster">
<title>clusterdir_40ac35421bc63b72c26b6c69b1517fd6</title>
<g id="a_clust2"><a xlink:href="dir_40ac35421bc63b72c26b6c69b1517fd6.html" target="_top">
<polygon fill="#deebf9" stroke="#404040" stroke-width="2" points="16,-80 16,-204 594,-204 594,-80 16,-80"/>
</a>
</g>
</g>
<!-- dir_9be0baa3d4a3e9f480a9ee70594037fa -->
<g id="node1" class="node">
<title>dir_9be0baa3d4a3e9f480a9ee70594037fa</title>
<g id="a_node1"><a xlink:href="dir_9be0baa3d4a3e9f480a9ee70594037fa.html" target="_top" xlink:title="kernel">
<polygon fill="#60a2e3" stroke="red" points="300,-52 246,-52 246,-16 300,-16 300,-52"/>
<text text-anchor="middle" x="273" y="-31.5" font-family="Helvetica,sans-Serif" font-size="10.00">kernel</text>
</a>
</g>
</g>
<!-- dir_40ac35421bc63b72c26b6c69b1517fd6 -->
<g id="node2" class="node">
<title>dir_40ac35421bc63b72c26b6c69b1517fd6</title>
<text text-anchor="middle" x="559" y="-175.5" font-family="Helvetica,sans-Serif" font-size="10.00">system</text>
</g>
<!-- dir_249e27ed47f6a2eab7da7b1ddc4f92fd -->
<g id="node3" class="node">
<title>dir_249e27ed47f6a2eab7da7b1ddc4f92fd</title>
<g id="a_node3"><a xlink:href="dir_249e27ed47f6a2eab7da7b1ddc4f92fd.html" target="_top" xlink:title="alloc">
<polygon fill="#60a2e3" stroke="#404040" points="370,-196 316,-196 316,-160 370,-160 370,-196"/>
<text text-anchor="middle" x="343" y="-175.5" font-family="Helvetica,sans-Serif" font-size="10.00">alloc</text>
</a>
</g>
</g>
<!-- dir_249e27ed47f6a2eab7da7b1ddc4f92fd&#45;&gt;dir_9be0baa3d4a3e9f480a9ee70594037fa -->
<g id="edge1" class="edge">
<title>dir_249e27ed47f6a2eab7da7b1ddc4f92fd&#45;&gt;dir_9be0baa3d4a3e9f480a9ee70594037fa</title>
<path fill="none" stroke="black" d="M334.56,-159.87C322.47,-135.35 300.13,-90.03 285.94,-61.26"/>
<polygon fill="black" stroke="black" points="289.03,-59.61 281.47,-52.19 282.76,-62.71 289.03,-59.61"/>
<g id="a_edge1&#45;headlabel"><a xlink:href="dir_000003_000149.html" target="_top" xlink:title="7">
<text text-anchor="middle" x="293.17" y="-59.08" font-family="Helvetica,sans-Serif" font-size="10.00">7</text>
</a>
</g>
</g>
<!-- dir_f82a163f83eb0dcdf294ef3743365a67 -->
<g id="node4" class="node">
<title>dir_f82a163f83eb0dcdf294ef3743365a67</title>
<g id="a_node4"><a xlink:href="dir_f82a163f83eb0dcdf294ef3743365a67.html" target="_top" xlink:title="iomanx">
<polygon fill="#60a2e3" stroke="#404040" points="514,-196 460,-196 460,-160 514,-160 514,-196"/>
<text text-anchor="middle" x="487" y="-175.5" font-family="Helvetica,sans-Serif" font-size="10.00">iomanx</text>
</a>
</g>
</g>
<!-- dir_f82a163f83eb0dcdf294ef3743365a67&#45;&gt;dir_9be0baa3d4a3e9f480a9ee70594037fa -->
<g id="edge2" class="edge">
<title>dir_f82a163f83eb0dcdf294ef3743365a67&#45;&gt;dir_9be0baa3d4a3e9f480a9ee70594037fa</title>
<path fill="none" stroke="black" d="M462.36,-159.94C433.98,-140.38 385.89,-107.47 344,-80 332.64,-72.55 320.15,-64.56 308.85,-57.42"/>
<polygon fill="black" stroke="black" points="310.42,-54.27 300.1,-51.9 306.69,-60.19 310.42,-54.27"/>
<g id="a_edge2&#45;headlabel"><a xlink:href="dir_000141_000149.html" target="_top" xlink:title="14">
<text text-anchor="middle" x="314.98" y="-51.29" font-family="Helvetica,sans-Serif" font-size="10.00">14</text>
</a>
</g>
</g>
<!-- dir_bdd9a5d540de89e9fe90efdfc6973a4f -->
<g id="node13" class="node">
<title>dir_bdd9a5d540de89e9fe90efdfc6973a4f</title>
<g id="a_node13"><a xlink:href="dir_bdd9a5d540de89e9fe90efdfc6973a4f.html" target="_top" xlink:title="common">
<polygon fill="none" stroke="red" points="664,-124 610,-124 610,-88 664,-88 664,-124"/>
<text text-anchor="middle" x="637" y="-103.5" font-family="Helvetica,sans-Serif" font-size="10.00">common</text>
</a>
</g>
</g>
<!-- dir_f82a163f83eb0dcdf294ef3743365a67&#45;&gt;dir_bdd9a5d540de89e9fe90efdfc6973a4f -->
<g id="edge3" class="edge">
<title>dir_f82a163f83eb0dcdf294ef3743365a67&#45;&gt;dir_bdd9a5d540de89e9fe90efdfc6973a4f</title>
<path fill="none" stroke="black" d="M514.12,-164.17C517.11,-162.76 520.12,-161.35 523,-160 548.94,-147.85 578.25,-134.22 600.65,-123.83"/>
<polygon fill="black" stroke="black" points="602.2,-126.97 609.8,-119.59 599.25,-120.62 602.2,-126.97"/>
<g id="a_edge3&#45;headlabel"><a xlink:href="dir_000141_000020.html" target="_top" xlink:title="2">
<text text-anchor="middle" x="600.13" y="-128.56" font-family="Helvetica,sans-Serif" font-size="10.00">2</text>
</a>
</g>
</g>
<!-- dir_024ed9b5cab300e9b0cec9fa63c26df3 -->
<g id="node5" class="node">
<title>dir_024ed9b5cab300e9b0cec9fa63c26df3</title>
<g id="a_node5"><a xlink:href="dir_024ed9b5cab300e9b0cec9fa63c26df3.html" target="_top" xlink:title="iopmgr">
<polygon fill="#60a2e3" stroke="#404040" points="442,-196 388,-196 388,-160 442,-160 442,-196"/>
<text text-anchor="middle" x="415" y="-175.5" font-family="Helvetica,sans-Serif" font-size="10.00">iopmgr</text>
</a>
</g>
</g>
<!-- dir_024ed9b5cab300e9b0cec9fa63c26df3&#45;&gt;dir_9be0baa3d4a3e9f480a9ee70594037fa -->
<g id="edge4" class="edge">
<title>dir_024ed9b5cab300e9b0cec9fa63c26df3&#45;&gt;dir_9be0baa3d4a3e9f480a9ee70594037fa</title>
<path fill="none" stroke="black" d="M397.87,-159.87C372.82,-134.82 326.05,-88.05 297.41,-59.41"/>
<polygon fill="black" stroke="black" points="299.74,-56.79 290.19,-52.19 294.79,-61.74 299.74,-56.79"/>
<g id="a_edge4&#45;headlabel"><a xlink:href="dir_000145_000149.html" target="_top" xlink:title="31">
<text text-anchor="middle" x="304.28" y="-54.82" font-family="Helvetica,sans-Serif" font-size="10.00">31</text>
</a>
</g>
</g>
<!-- dir_37a0b5ec4566a4318c90e018cb9457b6 -->
<g id="node6" class="node">
<title>dir_37a0b5ec4566a4318c90e018cb9457b6</title>
<g id="a_node6"><a xlink:href="dir_37a0b5ec4566a4318c90e018cb9457b6.html" target="_top" xlink:title="mtapman">
<polygon fill="#60a2e3" stroke="#404040" points="225.5,-196 168.5,-196 168.5,-160 225.5,-160 225.5,-196"/>
<text text-anchor="middle" x="197" y="-175.5" font-family="Helvetica,sans-Serif" font-size="10.00">mtapman</text>
</a>
</g>
</g>
<!-- dir_37a0b5ec4566a4318c90e018cb9457b6&#45;&gt;dir_9be0baa3d4a3e9f480a9ee70594037fa -->
<g id="edge5" class="edge">
<title>dir_37a0b5ec4566a4318c90e018cb9457b6&#45;&gt;dir_9be0baa3d4a3e9f480a9ee70594037fa</title>
<path fill="none" stroke="black" d="M225.51,-163.51C240.93,-154.6 258.68,-141.35 268,-124 278.1,-105.19 278.77,-80.82 277.24,-62.33"/>
<polygon fill="black" stroke="black" points="280.7,-61.78 276.13,-52.21 273.74,-62.53 280.7,-61.78"/>
<g id="a_edge5&#45;headlabel"><a xlink:href="dir_000167_000149.html" target="_top" xlink:title="17">
<text text-anchor="middle" x="283.91" y="-62.54" font-family="Helvetica,sans-Serif" font-size="10.00">17</text>
</a>
</g>
</g>
<!-- dir_cb26f304a37e679cc21ccc4e4a07be73 -->
<g id="node7" class="node">
<title>dir_cb26f304a37e679cc21ccc4e4a07be73</title>
<g id="a_node7"><a xlink:href="dir_cb26f304a37e679cc21ccc4e4a07be73.html" target="_top" xlink:title="padman">
<polygon fill="#60a2e3" stroke="#404040" points="78,-196 24,-196 24,-160 78,-160 78,-196"/>
<text text-anchor="middle" x="51" y="-175.5" font-family="Helvetica,sans-Serif" font-size="10.00">padman</text>
</a>
</g>
</g>
<!-- dir_cb26f304a37e679cc21ccc4e4a07be73&#45;&gt;dir_9be0baa3d4a3e9f480a9ee70594037fa -->
<g id="edge6" class="edge">
<title>dir_cb26f304a37e679cc21ccc4e4a07be73&#45;&gt;dir_9be0baa3d4a3e9f480a9ee70594037fa</title>
<path fill="none" stroke="black" d="M78.28,-163.43C81.19,-162.19 84.13,-161.02 87,-160 149.97,-137.62 183.74,-169.16 233,-124 248.23,-110.04 239.62,-98.88 248,-80 250.76,-73.78 254.09,-67.28 257.41,-61.22"/>
<polygon fill="black" stroke="black" points="260.66,-62.58 262.52,-52.15 254.56,-59.14 260.66,-62.58"/>
<g id="a_edge6&#45;headlabel"><a xlink:href="dir_000179_000149.html" target="_top" xlink:title="47">
<text text-anchor="middle" x="261.36" y="-64.61" font-family="Helvetica,sans-Serif" font-size="10.00">47</text>
</a>
</g>
</g>
<!-- dir_1fd4d135da32a6b9ad91946f648cae84 -->
<g id="node12" class="node">
<title>dir_1fd4d135da32a6b9ad91946f648cae84</title>
<g id="a_node12"><a xlink:href="dir_1fd4d135da32a6b9ad91946f648cae84.html" target="_top" xlink:title="sio2man">
<polygon fill="#60a2e3" stroke="#404040" points="78,-124 24,-124 24,-88 78,-88 78,-124"/>
<text text-anchor="middle" x="51" y="-103.5" font-family="Helvetica,sans-Serif" font-size="10.00">sio2man</text>
</a>
</g>
</g>
<!-- dir_cb26f304a37e679cc21ccc4e4a07be73&#45;&gt;dir_1fd4d135da32a6b9ad91946f648cae84 -->
<g id="edge7" class="edge">
<title>dir_cb26f304a37e679cc21ccc4e4a07be73&#45;&gt;dir_1fd4d135da32a6b9ad91946f648cae84</title>
<path fill="none" stroke="black" d="M51,-159.7C51,-151.98 51,-142.71 51,-134.11"/>
<polygon fill="black" stroke="black" points="54.5,-134.1 51,-124.1 47.5,-134.1 54.5,-134.1"/>
<g id="a_edge7&#45;headlabel"><a xlink:href="dir_000179_000196.html" target="_top" xlink:title="1">
<text text-anchor="middle" x="57.34" y="-135.2" font-family="Helvetica,sans-Serif" font-size="10.00">1</text>
</a>
</g>
</g>
<!-- dir_fe7329d8b89241d59f89f45fd75d2e77 -->
<g id="node8" class="node">
<title>dir_fe7329d8b89241d59f89f45fd75d2e77</title>
<g id="a_node8"><a xlink:href="dir_fe7329d8b89241d59f89f45fd75d2e77.html" target="_top" xlink:title="rmman">
<polygon fill="#60a2e3" stroke="#404040" points="298,-196 244,-196 244,-160 298,-160 298,-196"/>
<text text-anchor="middle" x="271" y="-175.5" font-family="Helvetica,sans-Serif" font-size="10.00">rmman</text>
</a>
</g>
</g>
<!-- dir_fe7329d8b89241d59f89f45fd75d2e77&#45;&gt;dir_9be0baa3d4a3e9f480a9ee70594037fa -->
<g id="edge8" class="edge">
<title>dir_fe7329d8b89241d59f89f45fd75d2e77&#45;&gt;dir_9be0baa3d4a3e9f480a9ee70594037fa</title>
<path fill="none" stroke="black" d="M278.07,-159.67C281.84,-149.47 286.09,-136.22 288,-124 291.02,-104.68 291.13,-99.3 288,-80 287.02,-73.96 285.34,-67.63 283.46,-61.7"/>
<polygon fill="black" stroke="black" points="286.75,-60.5 280.18,-52.19 280.13,-62.79 286.75,-60.5"/>
<g id="a_edge8&#45;headlabel"><a xlink:href="dir_000188_000149.html" target="_top" xlink:title="17">
<text text-anchor="middle" x="290.61" y="-60.48" font-family="Helvetica,sans-Serif" font-size="10.00">17</text>
</a>
</g>
</g>
<!-- dir_47d6ec5167f7ee6ef257538cbd6ee8bb -->
<g id="node9" class="node">
<title>dir_47d6ec5167f7ee6ef257538cbd6ee8bb</title>
<g id="a_node9"><a xlink:href="dir_47d6ec5167f7ee6ef257538cbd6ee8bb.html" target="_top" xlink:title="rsio2man">
<polygon fill="#60a2e3" stroke="#404040" points="224,-124 168,-124 168,-88 224,-88 224,-124"/>
<text text-anchor="middle" x="196" y="-103.5" font-family="Helvetica,sans-Serif" font-size="10.00">rsio2man</text>
</a>
</g>
</g>
<!-- dir_fe7329d8b89241d59f89f45fd75d2e77&#45;&gt;dir_47d6ec5167f7ee6ef257538cbd6ee8bb -->
<g id="edge10" class="edge">
<title>dir_fe7329d8b89241d59f89f45fd75d2e77&#45;&gt;dir_47d6ec5167f7ee6ef257538cbd6ee8bb</title>
<path fill="none" stroke="black" d="M252.46,-159.7C243.2,-151.05 231.84,-140.45 221.74,-131.03"/>
<polygon fill="black" stroke="black" points="224.02,-128.37 214.33,-124.1 219.25,-133.49 224.02,-128.37"/>
<g id="a_edge10&#45;headlabel"><a xlink:href="dir_000188_000190.html" target="_top" xlink:title="2">
<text text-anchor="middle" x="228.59" y="-126.25" font-family="Helvetica,sans-Serif" font-size="10.00">2</text>
</a>
</g>
</g>
<!-- dir_fe7329d8b89241d59f89f45fd75d2e77&#45;&gt;dir_bdd9a5d540de89e9fe90efdfc6973a4f -->
<g id="edge9" class="edge">
<title>dir_fe7329d8b89241d59f89f45fd75d2e77&#45;&gt;dir_bdd9a5d540de89e9fe90efdfc6973a4f</title>
<path fill="none" stroke="black" d="M298.17,-163.08C301.1,-161.9 304.08,-160.85 307,-160 432.17,-123.72 472.3,-158.39 598,-124 598.72,-123.8 599.45,-123.59 600.17,-123.38"/>
<polygon fill="black" stroke="black" points="601.36,-126.67 609.66,-120.08 599.06,-120.06 601.36,-126.67"/>
<g id="a_edge9&#45;headlabel"><a xlink:href="dir_000188_000020.html" target="_top" xlink:title="1">
<text text-anchor="middle" x="598.9" y="-128.03" font-family="Helvetica,sans-Serif" font-size="10.00">1</text>
</a>
</g>
</g>
<!-- dir_47d6ec5167f7ee6ef257538cbd6ee8bb&#45;&gt;dir_9be0baa3d4a3e9f480a9ee70594037fa -->
<g id="edge11" class="edge">
<title>dir_47d6ec5167f7ee6ef257538cbd6ee8bb&#45;&gt;dir_9be0baa3d4a3e9f480a9ee70594037fa</title>
<path fill="none" stroke="black" d="M215.03,-87.7C224.54,-79.05 236.21,-68.45 246.57,-59.03"/>
<polygon fill="black" stroke="black" points="249.14,-61.42 254.19,-52.1 244.43,-56.24 249.14,-61.42"/>
<g id="a_edge11&#45;headlabel"><a xlink:href="dir_000190_000149.html" target="_top" xlink:title="1">
<text text-anchor="middle" x="248.39" y="-63.44" font-family="Helvetica,sans-Serif" font-size="10.00">1</text>
</a>
</g>
</g>
<!-- dir_4bae4802256ab45fc18d13b3c6375605 -->
<g id="node10" class="node">
<title>dir_4bae4802256ab45fc18d13b3c6375605</title>
<g id="a_node10"><a xlink:href="dir_4bae4802256ab45fc18d13b3c6375605.html" target="_top" xlink:title="sbusintr">
<polygon fill="#60a2e3" stroke="#404040" points="150,-124 96,-124 96,-88 150,-88 150,-124"/>
<text text-anchor="middle" x="123" y="-103.5" font-family="Helvetica,sans-Serif" font-size="10.00">sbusintr</text>
</a>
</g>
</g>
<!-- dir_4bae4802256ab45fc18d13b3c6375605&#45;&gt;dir_9be0baa3d4a3e9f480a9ee70594037fa -->
<g id="edge12" class="edge">
<title>dir_4bae4802256ab45fc18d13b3c6375605&#45;&gt;dir_9be0baa3d4a3e9f480a9ee70594037fa</title>
<path fill="none" stroke="black" d="M146.13,-87.78C150.31,-85.01 154.71,-82.3 159,-80 183.84,-66.7 213.48,-55.12 236.31,-47.04"/>
<polygon fill="black" stroke="black" points="237.66,-50.28 245.96,-43.69 235.37,-43.66 237.66,-50.28"/>
<g id="a_edge12&#45;headlabel"><a xlink:href="dir_000192_000149.html" target="_top" xlink:title="10">
<text text-anchor="middle" x="235.2" y="-51.64" font-family="Helvetica,sans-Serif" font-size="10.00">10</text>
</a>
</g>
</g>
<!-- dir_c3fae06f71c3e401160299d109ef6df7 -->
<g id="node11" class="node">
<title>dir_c3fae06f71c3e401160299d109ef6df7</title>
<g id="a_node11"><a xlink:href="dir_c3fae06f71c3e401160299d109ef6df7.html" target="_top" xlink:title="siftoo">
<polygon fill="#60a2e3" stroke="#404040" points="150,-196 96,-196 96,-160 150,-160 150,-196"/>
<text text-anchor="middle" x="123" y="-175.5" font-family="Helvetica,sans-Serif" font-size="10.00">siftoo</text>
</a>
</g>
</g>
<!-- dir_c3fae06f71c3e401160299d109ef6df7&#45;&gt;dir_9be0baa3d4a3e9f480a9ee70594037fa -->
<g id="edge13" class="edge">
<title>dir_c3fae06f71c3e401160299d109ef6df7&#45;&gt;dir_9be0baa3d4a3e9f480a9ee70594037fa</title>
<path fill="none" stroke="black" d="M150.02,-164.43C153.37,-162.91 156.76,-161.41 160,-160 198.76,-143.18 219.88,-155.54 248,-124 256.16,-114.85 263.49,-84.91 268.07,-62.27"/>
<polygon fill="black" stroke="black" points="271.56,-62.65 270.03,-52.17 264.68,-61.32 271.56,-62.65"/>
<g id="a_edge13&#45;headlabel"><a xlink:href="dir_000194_000149.html" target="_top" xlink:title="13">
<text text-anchor="middle" x="273.66" y="-64.22" font-family="Helvetica,sans-Serif" font-size="10.00">13</text>
</a>
</g>
</g>
<!-- dir_c3fae06f71c3e401160299d109ef6df7&#45;&gt;dir_4bae4802256ab45fc18d13b3c6375605 -->
<g id="edge14" class="edge">
<title>dir_c3fae06f71c3e401160299d109ef6df7&#45;&gt;dir_4bae4802256ab45fc18d13b3c6375605</title>
<path fill="none" stroke="black" d="M123,-159.7C123,-151.98 123,-142.71 123,-134.11"/>
<polygon fill="black" stroke="black" points="126.5,-134.1 123,-124.1 119.5,-134.1 126.5,-134.1"/>
<g id="a_edge14&#45;headlabel"><a xlink:href="dir_000194_000192.html" target="_top" xlink:title="3">
<text text-anchor="middle" x="129.34" y="-135.2" font-family="Helvetica,sans-Serif" font-size="10.00">3</text>
</a>
</g>
</g>
<!-- dir_1fd4d135da32a6b9ad91946f648cae84&#45;&gt;dir_9be0baa3d4a3e9f480a9ee70594037fa -->
<g id="edge15" class="edge">
<title>dir_1fd4d135da32a6b9ad91946f648cae84&#45;&gt;dir_9be0baa3d4a3e9f480a9ee70594037fa</title>
<path fill="none" stroke="black" d="M73.09,-87.78C77.53,-84.88 82.28,-82.12 87,-80 135.89,-58.04 197.03,-45.88 235.56,-39.9"/>
<polygon fill="black" stroke="black" points="236.43,-43.31 245.8,-38.37 235.4,-36.39 236.43,-43.31"/>
<g id="a_edge15&#45;headlabel"><a xlink:href="dir_000196_000149.html" target="_top" xlink:title="19">
<text text-anchor="middle" x="233.29" y="-44.15" font-family="Helvetica,sans-Serif" font-size="10.00">19</text>
</a>
</g>
</g>
</g>
</svg>
