<?xml version="1.0" encoding="UTF-8" standalone="no"?>
<!DOCTYPE svg PUBLIC "-//W3C//DTD SVG 1.1//EN"
 "http://www.w3.org/Graphics/SVG/1.1/DTD/svg11.dtd">
<!-- Generated by graphviz version 2.50.0 (20220203.2022)
 -->
<!-- Title: ee/libc Pages: 1 -->
<svg width="372pt" height="183pt"
 viewBox="0.00 0.00 372.00 183.00" xmlns="http://www.w3.org/2000/svg" xmlns:xlink="http://www.w3.org/1999/xlink">
<g id="graph0" class="graph" transform="scale(1 1) rotate(0) translate(4 179)">
<title>ee/libc</title>
<polygon fill="white" stroke="transparent" points="-4,4 -4,-179 368,-179 368,4 -4,4"/>
<g id="clust1" class="cluster">
<title>clusterdir_049738f1909e8dc3e45fe1f6b3faa109</title>
<g id="a_clust1"><a xlink:href="dir_049738f1909e8dc3e45fe1f6b3faa109.html" target="_top" xlink:title="ee">
<polygon fill="#deebf9" stroke="#404040" stroke-dasharray="5,2" points="8,-8 8,-167 228,-167 228,-8 8,-8"/>
<text text-anchor="middle" x="118" y="-155" font-family="Helvetica,sans-Serif" font-size="10.00">ee</text>
</a>
</g>
</g>
<g id="clust2" class="cluster">
<title>clusterdir_4bdd3f0b1709457e1be42b8162664eee</title>
<g id="a_clust2"><a xlink:href="dir_4bdd3f0b1709457e1be42b8162664eee.html" target="_top">
<polygon fill="#deebf9" stroke="#404040" stroke-width="2" points="16,-16 16,-140 158,-140 158,-16 16,-16"/>
</a>
</g>
</g>
<!-- dir_694ec83a64f58cbdefbefce65cd1011c -->
<g id="node1" class="node">
<title>dir_694ec83a64f58cbdefbefce65cd1011c</title>
<g id="a_node1"><a xlink:href="dir_694ec83a64f58cbdefbefce65cd1011c.html" target="_top" xlink:title="kernel">
<polygon fill="#60a2e3" stroke="red" points="220,-60 166,-60 166,-24 220,-24 220,-60"/>
<text text-anchor="middle" x="193" y="-39.5" font-family="Helvetica,sans-Serif" font-size="10.00">kernel</text>
</a>
</g>
</g>
<!-- dir_4bdd3f0b1709457e1be42b8162664eee -->
<g id="node2" class="node">
<title>dir_4bdd3f0b1709457e1be42b8162664eee</title>
<text text-anchor="middle" x="123" y="-111.5" font-family="Helvetica,sans-Serif" font-size="10.00">libc</text>
</g>
<!-- dir_39d6953f1eb69dcf4512295f197273ef -->
<g id="node3" class="node">
<title>dir_39d6953f1eb69dcf4512295f197273ef</title>
<g id="a_node3"><a xlink:href="dir_39d6953f1eb69dcf4512295f197273ef.html" target="_top" xlink:title="include">
<polygon fill="#60a2e3" stroke="#404040" points="78,-60 24,-60 24,-24 78,-24 78,-60"/>
<text text-anchor="middle" x="51" y="-39.5" font-family="Helvetica,sans-Serif" font-size="10.00">include</text>
</a>
</g>
</g>
<!-- dir_98e6ef8179a6a3884f43ad475401c7a7 -->
<g id="node4" class="node">
<title>dir_98e6ef8179a6a3884f43ad475401c7a7</title>
<g id="a_node4"><a xlink:href="dir_98e6ef8179a6a3884f43ad475401c7a7.html" target="_top" xlink:title="src">
<polygon fill="#60a2e3" stroke="#404040" points="78,-132 24,-132 24,-96 78,-96 78,-132"/>
<text text-anchor="middle" x="51" y="-111.5" font-family="Helvetica,sans-Serif" font-size="10.00">src</text>
</a>
</g>
</g>
<!-- dir_98e6ef8179a6a3884f43ad475401c7a7&#45;&gt;dir_694ec83a64f58cbdefbefce65cd1011c -->
<g id="edge3" class="edge">
<title>dir_98e6ef8179a6a3884f43ad475401c7a7&#45;&gt;dir_694ec83a64f58cbdefbefce65cd1011c</title>
<path fill="none" stroke="black" d="M78.23,-100.1C103.13,-88.28 138.45,-71.49 156.82,-62.49"/>
<polygon fill="black" stroke="black" points="158.61,-65.52 166,-57.92 155.48,-59.25 158.61,-65.52"/>
<g id="a_edge3&#45;headlabel"><a xlink:href="dir_000219_000148.html" target="_top" xlink:title="8">
<text text-anchor="middle" x="156.65" y="-67.16" font-family="Helvetica,sans-Serif" font-size="10.00">8</text>
</a>
</g>
</g>
<!-- dir_98e6ef8179a6a3884f43ad475401c7a7&#45;&gt;dir_39d6953f1eb69dcf4512295f197273ef -->
<g id="edge2" class="edge">
<title>dir_98e6ef8179a6a3884f43ad475401c7a7&#45;&gt;dir_39d6953f1eb69dcf4512295f197273ef</title>
<path fill="none" stroke="black" d="M51,-95.7C51,-87.98 51,-78.71 51,-70.11"/>
<polygon fill="black" stroke="black" points="54.5,-70.1 51,-60.1 47.5,-70.1 54.5,-70.1"/>
<g id="a_edge2&#45;headlabel"><a xlink:href="dir_000219_000070.html" target="_top" xlink:title="1">
<text text-anchor="middle" x="57.34" y="-71.2" font-family="Helvetica,sans-Serif" font-size="10.00">1</text>
</a>
</g>
</g>
<!-- dir_0981ace215aa2029f526b70c145b9fbe -->
<g id="node5" class="node">
<title>dir_0981ace215aa2029f526b70c145b9fbe</title>
<g id="a_node5"><a xlink:href="dir_0981ace215aa2029f526b70c145b9fbe.html" target="_top" xlink:title="iop">
<polygon fill="none" stroke="red" points="292,-60 238,-60 238,-24 292,-24 292,-60"/>
<text text-anchor="middle" x="265" y="-39.5" font-family="Helvetica,sans-Serif" font-size="10.00">iop</text>
</a>
</g>
</g>
<!-- dir_98e6ef8179a6a3884f43ad475401c7a7&#45;&gt;dir_0981ace215aa2029f526b70c145b9fbe -->
<g id="edge1" class="edge">
<title>dir_98e6ef8179a6a3884f43ad475401c7a7&#45;&gt;dir_0981ace215aa2029f526b70c145b9fbe</title>
<path fill="none" stroke="black" d="M78.28,-99.43C81.19,-98.19 84.14,-97.02 87,-96 146.5,-74.8 167.76,-82.5 228.22,-61.13"/>
<polygon fill="black" stroke="black" points="229.67,-64.33 237.85,-57.6 227.26,-57.76 229.67,-64.33"/>
<g id="a_edge1&#45;headlabel"><a xlink:href="dir_000219_000142.html" target="_top" xlink:title="9">
<text text-anchor="middle" x="227.27" y="-65.73" font-family="Helvetica,sans-Serif" font-size="10.00">9</text>
</a>
</g>
</g>
<!-- dir_bdd9a5d540de89e9fe90efdfc6973a4f -->
<g id="node6" class="node">
<title>dir_bdd9a5d540de89e9fe90efdfc6973a4f</title>
<g id="a_node6"><a xlink:href="dir_bdd9a5d540de89e9fe90efdfc6973a4f.html" target="_top" xlink:title="common">
<polygon fill="none" stroke="red" points="364,-60 310,-60 310,-24 364,-24 364,-60"/>
<text text-anchor="middle" x="337" y="-39.5" font-family="Helvetica,sans-Serif" font-size="10.00">common</text>
</a>
</g>
</g>
<!-- dir_98e6ef8179a6a3884f43ad475401c7a7&#45;&gt;dir_bdd9a5d540de89e9fe90efdfc6973a4f -->
<g id="edge4" class="edge">
<title>dir_98e6ef8179a6a3884f43ad475401c7a7&#45;&gt;dir_bdd9a5d540de89e9fe90efdfc6973a4f</title>
<path fill="none" stroke="black" d="M78.21,-99.21C81.13,-98.01 84.1,-96.91 87,-96 175.97,-68.1 206.92,-87.48 299.98,-59.81"/>
<polygon fill="black" stroke="black" points="301.27,-63.08 309.79,-56.79 299.21,-56.39 301.27,-63.08"/>
<g id="a_edge4&#45;headlabel"><a xlink:href="dir_000219_000020.html" target="_top" xlink:title="6">
<text text-anchor="middle" x="298.67" y="-64.35" font-family="Helvetica,sans-Serif" font-size="10.00">6</text>
</a>
</g>
</g>
</g>
</svg>
