<?xml version="1.0" encoding="UTF-8" standalone="no"?>
<!DOCTYPE svg PUBLIC "-//W3C//DTD SVG 1.1//EN"
 "http://www.w3.org/Graphics/SVG/1.1/DTD/svg11.dtd">
<!-- Generated by graphviz version 2.50.0 (20220203.2022)
 -->
<!-- Title: iop/fs Pages: 1 -->
<!--zoomable 247 -->
<svg id="main" version="1.1" xmlns="http://www.w3.org/2000/svg" xmlns:xlink="http://www.w3.org/1999/xlink" xml:space="preserve" onload="init(evt)">
<style type="text/css"><![CDATA[
.edge:hover path { stroke: red; }
.edge:hover polygon { stroke: red; fill: red; }
]]></style>
<script type="text/javascript"><![CDATA[
var edges = document.getElementsByTagName('g');
if (edges && edges.length) {
  for (var i=0;i<edges.length;i++) {
    if (edges[i].id.substr(0,4)=='edge') {
      edges[i].setAttribute('class','edge');
    }
  }
}
]]></script>
        <defs>
                <circle id="rim" cx="0" cy="0" r="7"/>
                <circle id="rim2" cx="0" cy="0" r="3.5"/>
                <g id="zoomPlus">
                        <use xlink:href="#rim" fill="#404040">
                                <set attributeName="fill" to="#808080" begin="zoomplus.mouseover" end="zoomplus.mouseout"/>
                        </use>
                        <path d="M-4,0h8M0,-4v8" fill="none" stroke="white" stroke-width="1.5" pointer-events="none"/>
                </g>
                <g id="zoomMin">
                        <use xlink:href="#rim" fill="#404040">
                                <set attributeName="fill" to="#808080" begin="zoomminus.mouseover" end="zoomminus.mouseout"/>
                        </use>
                        <path d="M-4,0h8" fill="none" stroke="white" stroke-width="1.5" pointer-events="none"/>
                </g>
                <g id="dirArrow">
                        <path fill="none" stroke="white" stroke-width="1.5" d="M0,-3.0v7 M-2.5,-0.5L0,-3.0L2.5,-0.5"/>
                </g>
               <g id="resetDef">
                       <use xlink:href="#rim2" fill="#404040">
                               <set attributeName="fill" to="#808080" begin="reset.mouseover" end="reset.mouseout"/>
                       </use>
               </g>
        </defs>

<script type="text/javascript">
var viewWidth = 688;
var viewHeight = 247;
var sectionId = 'dynsection-0';
</script>
<script xlink:href="svgpan.js"/>
<svg id="graph" class="graph">
<g id="viewport">
<title>iop/fs</title>
<polygon fill="white" stroke="transparent" points="-4,4 -4,-243 683.87,-243 683.87,4 -4,4"/>
<g id="clust1" class="cluster">
<title>clusterdir_0981ace215aa2029f526b70c145b9fbe</title>
<g id="a_clust1"><a xlink:href="dir_0981ace215aa2029f526b70c145b9fbe.html" target="_top" xlink:title="iop">
<polygon fill="#deebf9" stroke="#404040" stroke-dasharray="5,2" points="8,-8 8,-231 600,-231 600,-8 8,-8"/>
<text text-anchor="middle" x="304" y="-219" font-family="Helvetica,sans-Serif" font-size="10.00">iop</text>
</a>
</g>
</g>
<g id="clust2" class="cluster">
<title>clusterdir_f24daea2522ffa8b6dc5fa9cdf5b8f5c</title>
<g id="a_clust2"><a xlink:href="dir_f24daea2522ffa8b6dc5fa9cdf5b8f5c.html" target="_top">
<polygon fill="#deebf9" stroke="#404040" stroke-width="2" points="16,-80 16,-204 530,-204 530,-80 16,-80"/>
</a>
</g>
</g>
<!-- dir_9be0baa3d4a3e9f480a9ee70594037fa -->
<g id="node1" class="node">
<title>dir_9be0baa3d4a3e9f480a9ee70594037fa</title>
<g id="a_node1"><a xlink:href="dir_9be0baa3d4a3e9f480a9ee70594037fa.html" target="_top" xlink:title="kernel">
<polygon fill="#60a2e3" stroke="red" points="285,-52 231,-52 231,-16 285,-16 285,-52"/>
<text text-anchor="middle" x="258" y="-31.5" font-family="Helvetica,sans-Serif" font-size="10.00">kernel</text>
</a>
</g>
</g>
<!-- dir_40ac35421bc63b72c26b6c69b1517fd6 -->
<g id="node2" class="node">
<title>dir_40ac35421bc63b72c26b6c69b1517fd6</title>
<g id="a_node2"><a xlink:href="dir_40ac35421bc63b72c26b6c69b1517fd6.html" target="_top" xlink:title="system">
<polygon fill="#60a2e3" stroke="red" points="592,-124 538,-124 538,-88 592,-88 592,-124"/>
<text text-anchor="middle" x="565" y="-103.5" font-family="Helvetica,sans-Serif" font-size="10.00">system</text>
</a>
</g>
</g>
<!-- dir_f24daea2522ffa8b6dc5fa9cdf5b8f5c -->
<g id="node3" class="node">
<title>dir_f24daea2522ffa8b6dc5fa9cdf5b8f5c</title>
<text text-anchor="middle" x="495" y="-175.5" font-family="Helvetica,sans-Serif" font-size="10.00">fs</text>
</g>
<!-- dir_0134b0376fbe77322088b496fb368f9b -->
<g id="node4" class="node">
<title>dir_0134b0376fbe77322088b496fb368f9b</title>
<g id="a_node4"><a xlink:href="dir_0134b0376fbe77322088b496fb368f9b.html" target="_top" xlink:title="bdm">
<polygon fill="#60a2e3" stroke="#404040" points="371,-124 317,-124 317,-88 371,-88 371,-124"/>
<text text-anchor="middle" x="344" y="-103.5" font-family="Helvetica,sans-Serif" font-size="10.00">bdm</text>
</a>
</g>
</g>
<!-- dir_0134b0376fbe77322088b496fb368f9b&#45;&gt;dir_9be0baa3d4a3e9f480a9ee70594037fa -->
<g id="edge1" class="edge">
<title>dir_0134b0376fbe77322088b496fb368f9b&#45;&gt;dir_9be0baa3d4a3e9f480a9ee70594037fa</title>
<path fill="none" stroke="black" d="M322.74,-87.7C311.91,-78.88 298.58,-68.03 286.84,-58.47"/>
<polygon fill="black" stroke="black" points="288.98,-55.7 279.01,-52.1 284.56,-61.13 288.98,-55.7"/>
<g id="a_edge1&#45;headlabel"><a xlink:href="dir_000010_000149.html" target="_top" xlink:title="13">
<text text-anchor="middle" x="293.56" y="-53.27" font-family="Helvetica,sans-Serif" font-size="10.00">13</text>
</a>
</g>
</g>
<!-- dir_bdd9a5d540de89e9fe90efdfc6973a4f -->
<g id="node11" class="node">
<title>dir_bdd9a5d540de89e9fe90efdfc6973a4f</title>
<g id="a_node11"><a xlink:href="dir_bdd9a5d540de89e9fe90efdfc6973a4f.html" target="_top" xlink:title="common">
<polygon fill="none" stroke="red" points="673,-52 619,-52 619,-16 673,-16 673,-52"/>
<text text-anchor="middle" x="646" y="-31.5" font-family="Helvetica,sans-Serif" font-size="10.00">common</text>
</a>
</g>
</g>
<!-- dir_0134b0376fbe77322088b496fb368f9b&#45;&gt;dir_bdd9a5d540de89e9fe90efdfc6973a4f -->
<g id="edge2" class="edge">
<title>dir_0134b0376fbe77322088b496fb368f9b&#45;&gt;dir_bdd9a5d540de89e9fe90efdfc6973a4f</title>
<path fill="none" stroke="black" d="M361.92,-87.83C365.96,-84.77 370.42,-81.94 375,-80 469.44,-40.06 504.73,-77.68 604,-52 605.68,-51.57 607.37,-51.08 609.08,-50.56"/>
<polygon fill="black" stroke="black" points="610.47,-53.78 618.79,-47.22 608.19,-47.16 610.47,-53.78"/>
<g id="a_edge2&#45;headlabel"><a xlink:href="dir_000010_000020.html" target="_top" xlink:title="1">
<text text-anchor="middle" x="608" y="-55.13" font-family="Helvetica,sans-Serif" font-size="10.00">1</text>
</a>
</g>
</g>
<!-- dir_eabe988c95970cb88382a9440b1d86c2 -->
<g id="node5" class="node">
<title>dir_eabe988c95970cb88382a9440b1d86c2</title>
<g id="a_node5"><a xlink:href="dir_eabe988c95970cb88382a9440b1d86c2.html" target="_top" xlink:title="bdmfs_vfat">
<polygon fill="#60a2e3" stroke="#404040" points="305.5,-196 240.5,-196 240.5,-160 305.5,-160 305.5,-196"/>
<text text-anchor="middle" x="273" y="-175.5" font-family="Helvetica,sans-Serif" font-size="10.00">bdmfs_vfat</text>
</a>
</g>
</g>
<!-- dir_eabe988c95970cb88382a9440b1d86c2&#45;&gt;dir_9be0baa3d4a3e9f480a9ee70594037fa -->
<g id="edge5" class="edge">
<title>dir_eabe988c95970cb88382a9440b1d86c2&#45;&gt;dir_9be0baa3d4a3e9f480a9ee70594037fa</title>
<path fill="none" stroke="black" d="M271.19,-159.87C268.63,-135.67 263.94,-91.21 260.89,-62.39"/>
<polygon fill="black" stroke="black" points="264.35,-61.77 259.82,-52.19 257.39,-62.5 264.35,-61.77"/>
<g id="a_edge5&#45;headlabel"><a xlink:href="dir_000011_000149.html" target="_top" xlink:title="29">
<text text-anchor="middle" x="267.55" y="-62.54" font-family="Helvetica,sans-Serif" font-size="10.00">29</text>
</a>
</g>
</g>
<!-- dir_eabe988c95970cb88382a9440b1d86c2&#45;&gt;dir_0134b0376fbe77322088b496fb368f9b -->
<g id="edge3" class="edge">
<title>dir_eabe988c95970cb88382a9440b1d86c2&#45;&gt;dir_0134b0376fbe77322088b496fb368f9b</title>
<path fill="none" stroke="black" d="M290.55,-159.7C299.23,-151.14 309.86,-140.66 319.35,-131.3"/>
<polygon fill="black" stroke="black" points="321.99,-133.62 326.65,-124.1 317.07,-128.63 321.99,-133.62"/>
<g id="a_edge3&#45;headlabel"><a xlink:href="dir_000011_000010.html" target="_top" xlink:title="4">
<text text-anchor="middle" x="321.42" y="-135.66" font-family="Helvetica,sans-Serif" font-size="10.00">4</text>
</a>
</g>
</g>
<!-- dir_eabe988c95970cb88382a9440b1d86c2&#45;&gt;dir_bdd9a5d540de89e9fe90efdfc6973a4f -->
<g id="edge4" class="edge">
<title>dir_eabe988c95970cb88382a9440b1d86c2&#45;&gt;dir_bdd9a5d540de89e9fe90efdfc6973a4f</title>
<path fill="none" stroke="black" d="M305.74,-162.81C308.84,-161.75 311.95,-160.79 315,-160 377.64,-143.72 551.59,-161.97 604,-124 614.78,-116.19 627.99,-84.94 636.68,-61.66"/>
<polygon fill="black" stroke="black" points="639.97,-62.86 640.11,-52.27 633.39,-60.46 639.97,-62.86"/>
<g id="a_edge4&#45;headlabel"><a xlink:href="dir_000011_000020.html" target="_top" xlink:title="5">
<text text-anchor="middle" x="641.4" y="-64.71" font-family="Helvetica,sans-Serif" font-size="10.00">5</text>
</a>
</g>
</g>
<!-- dir_a0342a6ef9487eda55789d2e07a75ee7 -->
<g id="node6" class="node">
<title>dir_a0342a6ef9487eda55789d2e07a75ee7</title>
<g id="a_node6"><a xlink:href="dir_a0342a6ef9487eda55789d2e07a75ee7.html" target="_top" xlink:title="devfs">
<polygon fill="#60a2e3" stroke="#404040" points="78,-196 24,-196 24,-160 78,-160 78,-196"/>
<text text-anchor="middle" x="51" y="-175.5" font-family="Helvetica,sans-Serif" font-size="10.00">devfs</text>
</a>
</g>
</g>
<!-- dir_a0342a6ef9487eda55789d2e07a75ee7&#45;&gt;dir_9be0baa3d4a3e9f480a9ee70594037fa -->
<g id="edge6" class="edge">
<title>dir_a0342a6ef9487eda55789d2e07a75ee7&#45;&gt;dir_9be0baa3d4a3e9f480a9ee70594037fa</title>
<path fill="none" stroke="black" d="M69.62,-159.95C92.46,-139.51 132.87,-104.9 171,-80 187.07,-69.51 205.88,-59.52 221.89,-51.63"/>
<polygon fill="black" stroke="black" points="223.47,-54.75 230.95,-47.24 220.42,-48.45 223.47,-54.75"/>
<g id="a_edge6&#45;headlabel"><a xlink:href="dir_000025_000149.html" target="_top" xlink:title="18">
<text text-anchor="middle" x="221.48" y="-56.37" font-family="Helvetica,sans-Serif" font-size="10.00">18</text>
</a>
</g>
</g>
<!-- dir_6ec8af8771869123149626592b760e4b -->
<g id="node7" class="node">
<title>dir_6ec8af8771869123149626592b760e4b</title>
<g id="a_node7"><a xlink:href="dir_6ec8af8771869123149626592b760e4b.html" target="_top" xlink:title="fakehost">
<polygon fill="#60a2e3" stroke="#404040" points="150,-196 96,-196 96,-160 150,-160 150,-196"/>
<text text-anchor="middle" x="123" y="-175.5" font-family="Helvetica,sans-Serif" font-size="10.00">fakehost</text>
</a>
</g>
</g>
<!-- dir_6ec8af8771869123149626592b760e4b&#45;&gt;dir_9be0baa3d4a3e9f480a9ee70594037fa -->
<g id="edge7" class="edge">
<title>dir_6ec8af8771869123149626592b760e4b&#45;&gt;dir_9be0baa3d4a3e9f480a9ee70594037fa</title>
<path fill="none" stroke="black" d="M139.28,-159.87C163,-134.92 207.19,-88.45 234.45,-59.77"/>
<polygon fill="black" stroke="black" points="237.3,-61.85 241.66,-52.19 232.23,-57.03 237.3,-61.85"/>
<g id="a_edge7&#45;headlabel"><a xlink:href="dir_000041_000149.html" target="_top" xlink:title="22">
<text text-anchor="middle" x="236.89" y="-63.91" font-family="Helvetica,sans-Serif" font-size="10.00">22</text>
</a>
</g>
</g>
<!-- dir_3d3c25f590b74dfbd50a8b02c417c665 -->
<g id="node8" class="node">
<title>dir_3d3c25f590b74dfbd50a8b02c417c665</title>
<g id="a_node8"><a xlink:href="dir_3d3c25f590b74dfbd50a8b02c417c665.html" target="_top" xlink:title="filexio">
<polygon fill="#60a2e3" stroke="#404040" points="378,-196 324,-196 324,-160 378,-160 378,-196"/>
<text text-anchor="middle" x="351" y="-175.5" font-family="Helvetica,sans-Serif" font-size="10.00">filexio</text>
</a>
</g>
</g>
<!-- dir_3d3c25f590b74dfbd50a8b02c417c665&#45;&gt;dir_9be0baa3d4a3e9f480a9ee70594037fa -->
<g id="edge8" class="edge">
<title>dir_3d3c25f590b74dfbd50a8b02c417c665&#45;&gt;dir_9be0baa3d4a3e9f480a9ee70594037fa</title>
<path fill="none" stroke="black" d="M327.71,-159.91C316.05,-150.39 302.43,-137.71 293,-124 279.96,-105.04 270.78,-80.53 265.11,-62.03"/>
<polygon fill="black" stroke="black" points="268.39,-60.81 262.24,-52.19 261.67,-62.77 268.39,-60.81"/>
<g id="a_edge8&#45;headlabel"><a xlink:href="dir_000043_000149.html" target="_top" xlink:title="16">
<text text-anchor="middle" x="272.13" y="-60.97" font-family="Helvetica,sans-Serif" font-size="10.00">16</text>
</a>
</g>
</g>
<!-- dir_3d3c25f590b74dfbd50a8b02c417c665&#45;&gt;dir_bdd9a5d540de89e9fe90efdfc6973a4f -->
<g id="edge9" class="edge">
<title>dir_3d3c25f590b74dfbd50a8b02c417c665&#45;&gt;dir_bdd9a5d540de89e9fe90efdfc6973a4f</title>
<path fill="none" stroke="black" d="M378.18,-163.14C381.11,-161.96 384.09,-160.88 387,-160 440.11,-143.98 594.99,-163.43 634,-124 649.8,-108.03 651.62,-81.84 650.18,-61.99"/>
<polygon fill="black" stroke="black" points="653.66,-61.6 649.16,-52 646.7,-62.31 653.66,-61.6"/>
<g id="a_edge9&#45;headlabel"><a xlink:href="dir_000043_000020.html" target="_top" xlink:title="2">
<text text-anchor="middle" x="656.85" y="-62.38" font-family="Helvetica,sans-Serif" font-size="10.00">2</text>
</a>
</g>
</g>
<!-- dir_bb1a65baea34b53b4bbf06e6d3ddfe57 -->
<g id="node9" class="node">
<title>dir_bb1a65baea34b53b4bbf06e6d3ddfe57</title>
<g id="a_node9"><a xlink:href="dir_bb1a65baea34b53b4bbf06e6d3ddfe57.html" target="_top" xlink:title="http">
<polygon fill="#60a2e3" stroke="#404040" points="222,-196 168,-196 168,-160 222,-160 222,-196"/>
<text text-anchor="middle" x="195" y="-175.5" font-family="Helvetica,sans-Serif" font-size="10.00">http</text>
</a>
</g>
</g>
<!-- dir_bb1a65baea34b53b4bbf06e6d3ddfe57&#45;&gt;dir_9be0baa3d4a3e9f480a9ee70594037fa -->
<g id="edge10" class="edge">
<title>dir_bb1a65baea34b53b4bbf06e6d3ddfe57&#45;&gt;dir_9be0baa3d4a3e9f480a9ee70594037fa</title>
<path fill="none" stroke="black" d="M202.6,-159.87C213.43,-135.46 233.41,-90.43 246.18,-61.64"/>
<polygon fill="black" stroke="black" points="249.52,-62.75 250.37,-52.19 243.12,-59.91 249.52,-62.75"/>
<g id="a_edge10&#45;headlabel"><a xlink:href="dir_000051_000149.html" target="_top" xlink:title="15">
<text text-anchor="middle" x="250.66" y="-64.69" font-family="Helvetica,sans-Serif" font-size="10.00">15</text>
</a>
</g>
</g>
<!-- dir_c49d6f7b24cb4247c18d467361672153 -->
<g id="node10" class="node">
<title>dir_c49d6f7b24cb4247c18d467361672153</title>
<g id="a_node10"><a xlink:href="dir_c49d6f7b24cb4247c18d467361672153.html" target="_top" xlink:title="netfs">
<polygon fill="#60a2e3" stroke="#404040" points="450,-196 396,-196 396,-160 450,-160 450,-196"/>
<text text-anchor="middle" x="423" y="-175.5" font-family="Helvetica,sans-Serif" font-size="10.00">netfs</text>
</a>
</g>
</g>
<!-- dir_c49d6f7b24cb4247c18d467361672153&#45;&gt;dir_9be0baa3d4a3e9f480a9ee70594037fa -->
<g id="edge11" class="edge">
<title>dir_c49d6f7b24cb4247c18d467361672153&#45;&gt;dir_9be0baa3d4a3e9f480a9ee70594037fa</title>
<path fill="none" stroke="black" d="M395.89,-164.15C392.89,-162.74 389.88,-161.34 387,-160 352,-143.76 335.27,-151.3 308,-124 292.82,-108.8 298.44,-98.78 288,-80 284.44,-73.6 280.27,-66.93 276.19,-60.74"/>
<polygon fill="black" stroke="black" points="278.86,-58.44 270.36,-52.11 273.06,-62.36 278.86,-58.44"/>
<g id="a_edge11&#45;headlabel"><a xlink:href="dir_000170_000149.html" target="_top" xlink:title="32">
<text text-anchor="middle" x="283.22" y="-57.32" font-family="Helvetica,sans-Serif" font-size="10.00">32</text>
</a>
</g>
</g>
<!-- dir_c49d6f7b24cb4247c18d467361672153&#45;&gt;dir_40ac35421bc63b72c26b6c69b1517fd6 -->
<g id="edge12" class="edge">
<title>dir_c49d6f7b24cb4247c18d467361672153&#45;&gt;dir_40ac35421bc63b72c26b6c69b1517fd6</title>
<path fill="none" stroke="black" d="M450.23,-164.1C475.13,-152.28 510.45,-135.49 528.82,-126.49"/>
<polygon fill="black" stroke="black" points="530.61,-129.52 538,-121.92 527.48,-123.25 530.61,-129.52"/>
<g id="a_edge12&#45;headlabel"><a xlink:href="dir_000170_000314.html" target="_top" xlink:title="3">
<text text-anchor="middle" x="528.65" y="-131.16" font-family="Helvetica,sans-Serif" font-size="10.00">3</text>
</a>
</g>
</g>
<!-- dir_c49d6f7b24cb4247c18d467361672153&#45;&gt;dir_bdd9a5d540de89e9fe90efdfc6973a4f -->
<g id="edge13" class="edge">
<title>dir_c49d6f7b24cb4247c18d467361672153&#45;&gt;dir_bdd9a5d540de89e9fe90efdfc6973a4f</title>
<path fill="none" stroke="black" d="M450.21,-163.21C453.13,-162.01 456.1,-160.91 459,-160 504.8,-145.62 641.01,-160.66 672,-124 686.98,-106.28 676.84,-80.29 665.13,-60.97"/>
<polygon fill="black" stroke="black" points="667.91,-58.83 659.53,-52.35 662.04,-62.64 667.91,-58.83"/>
<g id="a_edge13&#45;headlabel"><a xlink:href="dir_000170_000020.html" target="_top" xlink:title="1">
<text text-anchor="middle" x="672.25" y="-57.8" font-family="Helvetica,sans-Serif" font-size="10.00">1</text>
</a>
</g>
</g>
</g>
</svg>
        <g id="navigator" transform="translate(0 0)" fill="#404254">
                <rect fill="#f2f5e9" fill-opacity="0.5" stroke="#606060" stroke-width=".5" x="0" y="0" width="60" height="60"/>
                <use id="zoomplus" xlink:href="#zoomPlus" x="17" y="9" onmousedown="handleZoom(evt,'in')"/>
                <use id="zoomminus" xlink:href="#zoomMin" x="42" y="9" onmousedown="handleZoom(evt,'out')"/>
                <use id="reset" xlink:href="#resetDef" x="30" y="36" onmousedown="handleReset()"/>
                <g id="arrowUp" xlink:href="#dirArrow" transform="translate(30 24)" onmousedown="handlePan(0,-1)">
                  <use xlink:href="#rim" fill="#404040">
                        <set attributeName="fill" to="#808080" begin="arrowUp.mouseover" end="arrowUp.mouseout"/>
                  </use>
                  <path fill="none" stroke="white" stroke-width="1.5" d="M0,-3.0v7 M-2.5,-0.5L0,-3.0L2.5,-0.5"/>
                </g>
                <g id="arrowRight" xlink:href="#dirArrow" transform="rotate(90) translate(36 -43)" onmousedown="handlePan(1,0)">
                  <use xlink:href="#rim" fill="#404040">
                        <set attributeName="fill" to="#808080" begin="arrowRight.mouseover" end="arrowRight.mouseout"/>
                  </use>
                  <path fill="none" stroke="white" stroke-width="1.5" d="M0,-3.0v7 M-2.5,-0.5L0,-3.0L2.5,-0.5"/>
                </g>
                <g id="arrowDown" xlink:href="#dirArrow" transform="rotate(180) translate(-30 -48)" onmousedown="handlePan(0,1)">
                  <use xlink:href="#rim" fill="#404040">
                        <set attributeName="fill" to="#808080" begin="arrowDown.mouseover" end="arrowDown.mouseout"/>
                  </use>
                  <path fill="none" stroke="white" stroke-width="1.5" d="M0,-3.0v7 M-2.5,-0.5L0,-3.0L2.5,-0.5"/>
                </g>
                <g id="arrowLeft" xlink:href="#dirArrow" transform="rotate(270) translate(-36 17)" onmousedown="handlePan(-1,0)">
                  <use xlink:href="#rim" fill="#404040">
                        <set attributeName="fill" to="#808080" begin="arrowLeft.mouseover" end="arrowLeft.mouseout"/>
                  </use>
                  <path fill="none" stroke="white" stroke-width="1.5" d="M0,-3.0v7 M-2.5,-0.5L0,-3.0L2.5,-0.5"/>
                </g>
        </g>
        <svg viewBox="0 0 15 15" width="100%" height="30px" preserveAspectRatio="xMaxYMin meet">
         <g id="arrow_out" transform="scale(0.3 0.3)">
          <a xlink:href="dir_f24daea2522ffa8b6dc5fa9cdf5b8f5c_dep_org.svg" target="_base">
           <rect id="button" ry="5" rx="5" y="6" x="6" height="38" width="38"
                fill="#f2f5e9" fill-opacity="0.5" stroke="#606060" stroke-width="1.0"/>
           <path id="arrow"
             d="M 11.500037,31.436501 C 11.940474,20.09759 22.043105,11.32322 32.158766,21.979434 L 37.068811,17.246167 C 37.068811,17.246167 37.088388,32 37.088388,32 L 22.160133,31.978069 C 22.160133,31.978069 26.997745,27.140456 26.997745,27.140456 C 18.528582,18.264221 13.291696,25.230495 11.500037,31.436501 z"
             style="fill:#404040;"/>
          </a>
         </g>
        </svg>
</svg>
